<svg width="112" height="134" viewBox="0 0 112 134" fill="none" xmlns="http://www.w3.org/2000/svg">
<rect x="0.621437" y="23.1251" width="100" height="100" transform="rotate(-6.44018 0.621437 23.1251)" fill="#F16EE1"/>
<rect x="11.4241" y="11.8422" width="100" height="100" transform="rotate(6.55982 11.4241 11.8422)" fill="#595959"/>
<path d="M46.1001 101.052C39.61 101.784 34.0351 101.112 29.3754 99.0349C23.558 96.5027 20.312 92.2486 19.6374 86.2726C18.9556 80.2323 21.0488 74.562 25.917 69.2619C30.4857 64.1908 35.8545 61.307 42.0233 60.6107C44.6579 60.3133 46.0042 60.4217 46.0623 60.9357C46.0913 61.1928 45.1383 61.3979 43.2033 61.5513C36.9702 62.2549 32.0077 64.7023 28.3159 68.8935C24.396 73.3707 22.777 78.6295 23.4588 84.6698C24.0681 90.0676 26.3533 94.1698 30.3144 96.9765C34.2756 99.7833 39.0193 100.875 44.5455 100.251C49.1721 99.7287 54.2501 98.0167 59.7795 95.1148C69.4039 89.8635 73.7338 82.9646 72.7691 74.4182C72.2033 69.406 69.4076 65.394 64.3821 62.382L50.6268 55.5397C45.68 52.649 42.9709 49.1152 42.4994 44.9384C42.1585 41.9182 42.9463 39.0961 44.8627 36.4719C42.8282 36.8968 41.2377 38.085 40.0914 40.0366C38.9378 41.9239 38.4807 43.9278 38.7201 46.0483C39.2278 50.5464 41.7265 54.2341 46.2163 57.1113L58.9859 63.8697C63.7327 66.7179 66.5776 70.3014 67.5206 74.6202C68.6607 73.19 69.5842 72.4349 70.291 72.3552C70.8051 72.2971 71.1057 72.6537 71.1927 73.4248C71.4466 75.6738 70.1442 78.2612 67.2857 81.187C66.2927 85.0736 63.8461 88.7663 59.946 92.2652C56.1671 95.6853 52.2535 97.6238 48.2052 98.0808C47.8839 98.117 47.7124 98.0388 47.6906 97.846C47.6471 97.4605 47.8824 97.2387 48.3964 97.1806L51.9939 96.1889C54.9197 95.0126 57.6052 93.1476 60.0502 90.5939C62.4879 87.976 64.1898 85.1808 65.1558 82.2083C63.7038 80.8754 62.8654 79.213 62.6405 77.221C62.3939 75.0362 62.8168 73.8821 63.9092 73.7588C64.4233 73.7008 64.9306 73.8713 65.4312 74.2703C64.942 72.2431 63.9818 70.3666 62.5506 68.6409C61.1836 66.908 59.3243 65.4259 56.9726 64.1945L44.7176 57.671C40.3491 54.715 37.9038 50.9236 37.3815 46.297C37.0914 43.7267 37.6765 41.4155 39.1369 39.3634C40.6543 37.2398 42.6981 36.0329 45.2685 35.7428L45.4612 35.721C49.7014 30.6219 55.8376 27.619 63.8699 26.7123C70.8099 25.929 75.807 26.9593 78.8613 29.8033C79.9412 30.7227 80.5537 31.8249 80.6988 33.1101C80.9454 35.2949 79.7166 37.0931 77.0126 38.5046C75.1076 39.5006 72.8057 40.1509 70.1068 40.4555C68.8216 40.6006 67.4613 40.6565 66.0259 40.6233C64.5904 40.5901 63.0513 40.5035 61.4086 40.3636C57.6443 39.8774 54.89 39.1145 53.1458 38.0749C53.0027 37.9609 52.9276 37.8718 52.9203 37.8075C52.8986 37.6148 52.9841 37.5075 53.1769 37.4857C53.3696 37.464 53.5018 37.4816 53.5733 37.5386C57.6402 39.5525 63.0151 40.1822 69.698 39.4279C71.8185 39.1885 73.7064 38.6175 75.3616 37.7148C77.5091 36.5613 78.4813 35.085 78.2782 33.2857C78.0026 30.8439 76.0287 29.212 72.3567 28.39C69.5563 27.795 66.7745 27.6535 64.0114 27.9654C55.5935 28.9156 50.147 32.2636 47.6719 38.0095C46.8323 39.7963 46.525 41.6857 46.7498 43.6777C47.1995 47.6617 49.8869 51.0027 54.8119 53.7007L68.4491 60.3611C73.4394 63.6373 76.2464 68.0386 76.8702 73.5648C77.7116 81.0188 74.5343 87.4622 67.3383 92.895C61.2761 97.4188 54.1967 100.138 46.1001 101.052Z" fill="white"/>
</svg>
